<?xml version="1.0" encoding="utf-8"?>
<!-- Generator: Adobe Illustrator 15.1.0, SVG Export Plug-In . SVG Version: 6.00 Build 0)  -->
<!DOCTYPE svg PUBLIC "-//W3C//DTD SVG 1.1//EN" "http://www.w3.org/Graphics/SVG/1.1/DTD/svg11.dtd">
<svg version="1.1" id="Layer_1" xmlns="http://www.w3.org/2000/svg" xmlns:xlink="http://www.w3.org/1999/xlink" x="0px" y="0px"
	 width="100px" height="99.848px" viewBox="-13.05 -8.043 100 99.848" enable-background="new -13.05 -8.043 100 99.848"
	 xml:space="preserve">
<g>
	<path fill="#ff3d00" d="M86.95,41.882c0,27.666-22.409,49.922-50.078,49.922c-27.507,0-49.922-22.257-49.922-49.922
		c0-27.514,22.415-49.925,49.922-49.925C64.541-8.043,86.95,14.369,86.95,41.882z M4.571,74.339
		c2.935,2.938,6.336,5.409,9.893,7.421l11.285-21.33c3.246,2.008,7.107,3.09,11.279,3.09c12.211,0,21.638-9.581,21.638-21.637
		c0-5.876-2.313-11.285-6.025-15.15l20.4-12.982c-1.082-1.545-2.319-2.938-3.706-4.172c-3.096-3.093-6.342-5.564-10.048-7.729
		l-11.285,21.33c-3.09-1.856-6.957-2.938-10.974-2.938c-12.056,0-21.638,9.584-21.638,21.641c0,5.717,2.164,10.974,5.72,14.835
		L0.548,69.703C1.785,71.404,3.178,72.794,4.571,74.339z M27.757,41.882c0-5.257,4.172-9.429,9.271-9.429
		c5.254,0,9.432,4.172,9.432,9.429c0,4.946-4.178,9.274-9.432,9.274C32.084,51.156,27.757,46.828,27.757,41.882z M32.389,41.882
		c0,2.782,1.859,4.635,4.638,4.635c2.786,0,4.793-1.853,4.793-4.635c0-2.783-2.008-4.794-4.793-4.794
		C34.248,37.088,32.389,39.1,32.389,41.882z"/>
</g>
</svg>
