<svg xmlns="http://www.w3.org/2000/svg" xmlns:xlink="http://www.w3.org/1999/xlink" version="1.1" id="Layer_1" x="0px" y="0px" viewBox="0 0 100 100" enable-background="new 0 0 100 100" xml:space="preserve" height="100px" width="100px">
<g>
	<polygon fill="#ff3d00" points="27.783,52.526 31.439,56.65 41.281,58.545 43.343,55.492 28.283,48.442  "/>
	<polygon fill="#ff3d00" points="56.649,55.492 58.712,58.545 68.553,56.65 72.209,52.526 71.709,48.442  "/>
	<path fill="#ff3d00" d="M76.372,15.182C69.402,5.833,54.897,5.024,50.607,5h-1.213c-4.29,0.024-18.795,0.833-25.765,10.182   c-8.232,11.047-4.941,39.136-4.941,39.136l2.712,5.543l1.412,13.64l7.985,10.452v0.491l6.495,8.041L41.162,95h17.676l3.878-2.514   l6.487-8.041v-0.491l7.985-10.452l1.412-13.64l2.712-5.543C81.313,54.318,84.603,26.229,76.372,15.182z M61.955,90.829H61.36   l-3.489-1.53H52.09L51.352,88.6H48.64l-0.738,0.698h-5.781l-3.49,1.53h-0.595l-3.822-6.463l0.507-4.013l3.862,5.432l2.53-2.712   h17.764l2.53,2.712l3.87-5.432l0.5,4.013L61.955,90.829z M73.811,62.795c-3.283,5.551-7.97,12.68-8.533,15.623l-3.791,5.63   l-2.435-2.387l-9.057-0.063l-9.048,0.063l-2.443,2.387l-3.782-5.63c-0.571-2.942-5.25-10.071-8.541-15.623   c-2.522-4.274-3.91-7.573-3.91-7.573l2.482-10.428l0.294-27.597c6.518-4.243,14.885-4.956,14.885-4.956l3.029,24.544l7.034,1.047   l7.034-1.047l3.03-24.544c0,0,8.366,0.714,14.885,4.956l0.293,27.597l2.49,10.428C77.728,55.222,76.332,58.521,73.811,62.795z"/>
</g>
</svg>
