<svg xmlns="http://www.w3.org/2000/svg" xmlns:xlink="http://www.w3.org/1999/xlink" version="1.1" id="Layer_1" x="0px" y="0px" width="90px" height="90px" viewBox="0 0 90 90" enable-background="new 0 0 90 90" xml:space="preserve">
<g>
	<g>
		<g>
			<path fill="#ff3d00" d="M86.531,14.508c-1.103-2.366-2.652-4.557-4.609-6.513C81.678,7.75,81.43,7.512,81.178,7.28     c-1.763-1.623-3.699-2.931-5.77-3.895c-2.538-1.183-5.214-1.812-7.962-1.875c-0.184-0.004-0.367-0.005-0.551-0.004     c-3.304,0.015-6.696,0.852-10.084,2.485c-2.563,1.236-5.146,2.942-7.716,5.093c-1.167,0.978-2.332,2.047-3.491,3.206     c-0.115,0.115-0.229,0.233-0.344,0.354c-0.023,0.025-0.046,0.05-0.07,0.074c-0.106,0.112-0.211,0.227-0.317,0.343     c-0.003,0.003-0.005,0.007-0.009,0.01c-2.709,3.007-5.115,7.357-7.16,12.955c-2.298,6.292-3.266,11.797-3.508,13.334     c-0.467,2.964-1.579,6.948-2.904,10.397c-0.693,1.804-1.429,3.434-2.18,4.84c0.008,0,0.017-0.001,0.026-0.001     c0.477,0,0.939,0.169,1.303,0.476c0.196,0.165,0.381,0.323,0.56,0.477c2.097-4.44,2.042-5.62,3.958-11.862     c0.535-1.742,1.187-1.75,1.899-0.958c0.829,3.635,2.236,5.73,3.417,6.912c1.809,1.809,4.379,2.836,6.908,3.412     c0.796,0.715,0.792,1.367-0.954,1.903c-6.25,1.918-7.424,1.86-11.881,3.967c0.156,0.184,0.316,0.373,0.482,0.574     c0.31,0.372,0.47,0.841,0.464,1.318c1.412-0.756,3.05-1.496,4.864-2.192c3.45-1.325,7.434-2.438,10.397-2.904     c1.538-0.242,7.043-1.21,13.335-3.508c5.443-1.988,9.706-4.318,12.702-6.936c0.002-0.001,0.003-0.003,0.005-0.004     c0.108-0.095,0.216-0.19,0.321-0.286c0.018-0.016,0.035-0.031,0.053-0.047c0.091-0.084,0.181-0.168,0.271-0.252     c0.022-0.022,0.046-0.044,0.068-0.065c0.107-0.103,0.213-0.205,0.316-0.308c3.708-3.708,6.5-7.479,8.299-11.207     c0.204-0.423,0.396-0.847,0.574-1.271c0.09-0.211,0.177-0.423,0.26-0.635c1.084-2.751,1.639-5.494,1.651-8.179     C88.425,20.08,87.793,17.215,86.531,14.508z M86.194,20.517l-1.742-1.742l1.107-1.107C85.851,18.603,86.062,19.554,86.194,20.517     z M69.529,25.949l-0.317,0.318l-1.787-1.787l2.307-2.307l0.435-0.435l1.787,1.787L69.529,25.949z M72.053,23.625l1.788,1.787     l-2.293,2.292l-0.449,0.45l-1.787-1.788l0.339-0.339L72.053,23.625z M53.238,27.342l2.741-2.741l1.787,1.787l-2.741,2.741     L53.238,27.342z M54.925,29.229l-2.741,2.742l-1.787-1.787l2.741-2.742L54.925,29.229z M57.866,26.488l1.787,1.787l-2.741,2.742     l-1.787-1.788L57.866,26.488z M57.967,26.388l2.741-2.741l1.787,1.787l-2.741,2.741L57.967,26.388z M62.595,25.534l1.788,1.788     l-2.742,2.741l-1.787-1.787L62.595,25.534z M64.482,27.421l1.788,1.787l-2.742,2.741l-1.787-1.787L64.482,27.421z M64.583,27.321     l2.741-2.742l1.787,1.787l-2.741,2.742L64.583,27.321z M69.736,21.967l-2.412,2.412l-1.787-1.787l2.741-2.742l1.442,1.441     l0.346,0.346L69.736,21.967z M67.225,24.479l-2.742,2.741l-1.787-1.787l2.741-2.742L67.225,24.479z M62.596,25.333l-1.787-1.787     l2.741-2.741l1.787,1.787L62.596,25.333z M60.708,23.446l-1.787-1.787l2.742-2.742l1.787,1.788L60.708,23.446z M60.608,23.547     l-2.742,2.741l-1.787-1.787l2.741-2.742L60.608,23.547z M55.979,24.401l-1.787-1.788l2.741-2.741l1.787,1.787L55.979,24.401z      M55.879,24.501l-2.741,2.742l-1.787-1.788l2.741-2.741L55.879,24.501z M53.038,27.342l-2.742,2.742l-1.787-1.787l2.741-2.742     L53.038,27.342z M52.083,32.071l-2.741,2.742l-1.787-1.788l2.741-2.742L52.083,32.071z M52.184,32.171l1.787,1.787L51.229,36.7     l-1.787-1.787L52.184,32.171z M52.283,32.071l2.742-2.742l1.787,1.788l-2.742,2.741L52.283,32.071z M56.912,31.217l1.787,1.787     l-2.741,2.742l-1.787-1.787L56.912,31.217z M57.013,31.117l2.741-2.742l1.787,1.788L58.8,32.904L57.013,31.117z M61.641,30.263     l1.787,1.787l-2.741,2.741l-1.787-1.787L61.641,30.263z M63.528,32.15l1.787,1.787l-2.741,2.742l-1.787-1.787L63.528,32.15z      M63.629,32.05l2.741-2.741l1.787,1.787l-2.741,2.741L63.629,32.05z M66.471,29.208l2.741-2.741l1.787,1.787l-2.741,2.741     L66.471,29.208z M71.099,28.354l1.787,1.787l-2.741,2.742l-1.787-1.788L71.099,28.354z M71.199,28.254l0.441-0.441l2.3-2.3     l1.787,1.787l-2.729,2.729l-0.012,0.012L71.199,28.254z M74.04,25.412l2.742-2.741l1.787,1.787l-2.742,2.741L74.04,25.412z      M73.94,25.312l-1.787-1.788l2.741-2.742l1.787,1.788L73.94,25.312z M72.053,23.425l-1.787-1.787l2.742-2.742l1.787,1.787     L72.053,23.425z M70.166,21.538l-0.462-0.462l-1.325-1.325l0.863-0.863l0.554-0.554l1.324-1.324l0.088,0.087l1.699,1.7     L70.166,21.538z M69.827,18.102l-0.639,0.639l-0.91,0.91l-1.787-1.787l1.447-1.447l1.295-1.294l0.329,0.33l1.458,1.458     L69.827,18.102z M68.179,19.75l-2.742,2.742l-1.787-1.787l2.742-2.742L68.179,19.75z M63.55,20.605l-1.787-1.788l2.741-2.741     l1.787,1.787L63.55,20.605z M61.662,18.718l-1.787-1.787l2.742-2.742l1.787,1.787L61.662,18.718z M61.562,18.817l-2.741,2.742     l-1.787-1.788l2.741-2.741L61.562,18.817z M56.934,19.672l-1.787-1.787l2.741-2.742l1.788,1.788L56.934,19.672z M56.834,19.772     l-2.741,2.741l-1.788-1.787l2.742-2.742L56.834,19.772z M53.992,22.614l-2.742,2.741l-1.787-1.787l2.742-2.741L53.992,22.614z      M51.15,25.455l-2.741,2.742l-1.787-1.787l2.741-2.742L51.15,25.455z M50.196,30.184l-2.742,2.741l-1.787-1.787l2.742-2.741     L50.196,30.184z M49.242,34.913l-1.43,1.429L46.5,37.655l-1.787-1.788l1.202-1.202l1.539-1.54L49.242,34.913z M47.934,36.421     l1.408-1.408l1.787,1.787l-0.725,0.724l-2.017,2.018l-1.787-1.787L47.934,36.421z M50.562,37.567l0.667-0.667l0.935,0.935     l0.853,0.853l-2.742,2.741l-1.787-1.787L50.562,37.567z M52.378,37.849L51.329,36.8l2.741-2.741l1.787,1.787L53.9,37.803     l-0.784,0.784L52.378,37.849z M54.13,37.774l1.828-1.829l1.787,1.787l-0.848,0.848l-1.894,1.894l-1.787-1.787L54.13,37.774z      M56.058,35.846l2.742-2.742l1.787,1.788l-2.742,2.741L56.058,35.846z M60.687,34.992l1.787,1.787l-2.741,2.741l-1.787-1.787     L60.687,34.992z M62.574,36.878l1.787,1.787l-2.741,2.742l-1.787-1.787L62.574,36.878z M62.674,36.779l2.741-2.741l1.787,1.787     l-2.741,2.741L62.674,36.779z M65.516,33.937l2.741-2.741l1.787,1.787l-2.741,2.741L65.516,33.937z M70.145,33.083l1.787,1.787     l-2.741,2.741l-1.787-1.787L70.145,33.083z M70.245,32.983l2.741-2.742l0.166,0.166l1.621,1.622l-1.044,1.043l-1.697,1.698     L70.245,32.983z M73.086,30.141l2.741-2.742l1.787,1.788l-2.741,2.741L73.086,30.141z M75.928,27.3l2.741-2.742l1.787,1.788     l-2.741,2.742L75.928,27.3z M76.882,22.571l2.741-2.742l1.788,1.787l-2.742,2.742L76.882,22.571z M76.782,22.471l-1.787-1.788     l2.741-2.741l1.787,1.787L76.782,22.471z M74.895,20.583l-1.787-1.787l2.741-2.742l1.788,1.787L74.895,20.583z M73.008,18.696     l-1.73-1.73l-0.057-0.057l0.167-0.167l2.574-2.575l1.787,1.787L73.008,18.696z M71.543,16.386l-0.423,0.423l-1.664-1.665     l-0.123-0.123l0.054-0.053l2.688-2.688l0.021,0.021l1.767,1.766L71.543,16.386z M69.326,14.829l-0.093,0.093l-0.944-0.944     l-0.844-0.843l2.742-2.742l1.787,1.787L69.326,14.829z M68.189,14.078l0.943,0.943l-1.279,1.28l-1.462,1.462l-1.787-1.787     l2.741-2.742L68.189,14.078z M64.504,15.876l-1.787-1.787l1.127-1.127l1.614-1.614l1.668,1.667l0.12,0.12L64.504,15.876z      M63.755,12.851l-1.138,1.138l-1.787-1.787l0.902-0.903l1.839-1.839l1.787,1.787L63.755,12.851z M62.517,14.089l-2.741,2.742     l-1.787-1.788l2.741-2.742L62.517,14.089z M57.888,14.943l-1.303-1.303l-0.484-0.484l2.742-2.741l0.508,0.508l1.279,1.279     L57.888,14.943z M56.451,13.707l1.337,1.336l-2.741,2.742l-1.616-1.616l-0.172-0.171l2.742-2.741L56.451,13.707z M53.343,16.282     l1.604,1.603l-2.741,2.742l-0.92-0.92l-0.867-0.868l2.741-2.741L53.343,16.282z M50.317,18.739l-1.787-1.787l2.741-2.741     l1.787,1.787L50.317,18.739z M51.116,19.738l0.988,0.988l-2.741,2.741l-1.787-1.787l1.088-1.088l1.653-1.653L51.116,19.738z      M49.264,23.568l-2.742,2.742l-1.787-1.787l0,0l0.002-0.002l2.74-2.74L49.264,23.568z M48.309,28.297l-2.741,2.742l-1.787-1.787     l2.741-2.742L48.309,28.297z M47.354,33.025l-1.531,1.531l-1.211,1.21l-1.787-1.787l1.64-1.64l1.102-1.102L47.354,33.025z      M46.399,37.755l-2.741,2.741l-1.787-1.787l2.741-2.742L46.399,37.755z M46.5,37.854l1.787,1.787l-2.742,2.742l-1.787-1.787     L46.5,37.854z M48.388,39.742l1.787,1.788l-2.742,2.742l-1.787-1.788L48.388,39.742z M50.274,41.629l1.787,1.787l-2.741,2.742     l-1.787-1.788L50.274,41.629z M50.375,41.529l2.741-2.742l1.787,1.787l-2.741,2.742L50.375,41.529z M55.004,40.675l1.787,1.787     l-2.742,2.742l-1.787-1.787L55.004,40.675z M55.104,40.575l1.873-1.873l0.868-0.868l1.787,1.787l-0.98,0.98l-1.761,1.761     L55.104,40.575z M58.761,40.692l0.972-0.972l1.787,1.787l-0.541,0.542l-2.2,2.2l-1.787-1.787L58.761,40.692z M61.118,42.109     l0.502-0.501l0.965,0.965l0.822,0.822l-2.742,2.742l-1.787-1.788L61.118,42.109z M62.838,42.626l-1.118-1.119l2.741-2.741     l1.787,1.787l-2.227,2.227l-0.515,0.515L62.838,42.626z M64.562,38.666l2.741-2.741l1.787,1.787l-2.741,2.742L64.562,38.666z      M69.19,37.812l1.787,1.788l-2.179,2.178l-0.563,0.563l-0.207-0.208l-1.58-1.58L69.19,37.812z M69.29,37.711l2.741-2.741     l1.325,1.325l0.462,0.462l-1.091,1.092l-1.65,1.649L69.29,37.711z M73.401,36.14l-1.27-1.27l1.608-1.608l1.133-1.133l1.787,1.787     l-2.741,2.741L73.401,36.14z M76.761,34.016l1.787,1.788l-2.741,2.741l-1.787-1.787L76.761,34.016z M74.974,32.029l2.741-2.742     l1.787,1.787l-2.741,2.742L74.974,32.029z M77.815,29.187l2.741-2.742l1.787,1.788l-2.741,2.741L77.815,29.187z M78.77,24.458     l2.741-2.742l1.788,1.787l-2.742,2.742L78.77,24.458z M81.511,21.516l-1.787-1.787l2.741-2.742l1.787,1.788L81.511,21.516z      M79.623,19.629l-1.787-1.787l2.742-2.742l1.787,1.787L79.623,19.629z M77.736,17.742l-1.787-1.788l2.741-2.742L80.479,15     L77.736,17.742z M75.849,15.854l-1.787-1.787l2.742-2.742l1.787,1.787L75.849,15.854z M73.962,13.968l-1.787-1.787l2.741-2.742     l1.788,1.787L73.962,13.968z M72.074,12.08l-0.02-0.02l-1.768-1.767l0.568-0.568l2.173-2.173l1.788,1.787L72.074,12.08z      M70.756,9.625l-0.568,0.568l-0.12-0.12l-1.668-1.667l2.742-2.742l1.787,1.788L70.756,9.625z M69.967,10.173l0.12,0.12     l-2.741,2.742l-0.12-0.12l-1.667-1.667L68.3,8.505L69.967,10.173z M65.458,11.147L63.671,9.36l2.742-2.741L68.2,8.406     L65.458,11.147z M63.571,9.26l-1.787-1.788l2.741-2.742l1.787,1.788L63.571,9.26z M63.472,9.36l-1.879,1.878l-0.863,0.863     L59.528,10.9l-0.586-0.585l2.742-2.742L63.472,9.36z M58.843,10.214l-1.788-1.788l2.742-2.741l1.787,1.787L58.843,10.214z      M58.742,10.314l-2.741,2.742l-1.787-1.788l2.741-2.741L58.742,10.314z M55.9,13.156l-2.741,2.741l-1.787-1.787l2.741-2.741     L55.9,13.156z M51.272,14.01l-1.788-1.787l2.742-2.742l1.787,1.787L51.272,14.01z M51.172,14.11l-2.741,2.742l-1.787-1.787     l2.741-2.742L51.172,14.11z M50.218,18.839l-2.001,2l-0.74,0.741l-0.146-0.146l-1.641-1.641l2.742-2.741L50.218,18.839z      M47.216,21.521l0.16,0.16l-2.395,2.395l-0.346,0.347l-1.787-1.787l2.741-2.742L47.216,21.521z M44.667,24.656l1.754,1.754     l-2.698,2.697l-0.044,0.044l-1.787-1.787l2.742-2.742L44.667,24.656z M43.58,29.251l-2.742,2.741l-1.787-1.787l2.742-2.742     L43.58,29.251z M43.68,29.351l0.062,0.062l1.725,1.725L44.406,32.2l-1.68,1.681l-1.787-1.787L43.68,29.351z M44.513,35.867     l-2.741,2.742l-1.788-1.787l2.742-2.742L44.513,35.867z M41.771,38.809l1.787,1.787l-2.742,2.742L39.03,41.55L41.771,38.809z      M43.659,40.696l1.787,1.787l-2.741,2.742l-1.787-1.788L43.659,40.696z M45.546,42.583l1.787,1.787l-2.742,2.742l-1.787-1.788     L45.546,42.583z M47.434,44.471l1.787,1.787l-2.742,2.741l-1.787-1.787L47.434,44.471z M49.32,46.357l1.787,1.788l-2.741,2.741     L46.579,49.1L49.32,46.357z M49.42,46.258l2.742-2.742l1.787,1.788l-2.742,2.741L49.42,46.258z M54.049,45.403l1.787,1.787     l-2.741,2.742l-1.787-1.787L54.049,45.403z M54.149,45.304l2.741-2.742l1.787,1.787l-2.741,2.742L54.149,45.304z M58.778,44.449     l1.787,1.787l-2.741,2.742l-1.787-1.788L58.778,44.449z M60.665,46.337l1.787,1.787l-2.741,2.741l-1.787-1.787L60.665,46.337z      M60.766,46.236l2.741-2.741l1.787,1.787l-2.741,2.741L60.766,46.236z M63.607,43.395l0.604-0.605l2.137-2.137l1.535,1.536     l0.252,0.251l-2.741,2.742L63.607,43.395z M68.235,42.54l1.787,1.788l-2.741,2.742l-1.787-1.787L68.235,42.54z M68.336,42.44     l0.91-0.911l1.831-1.831l0.203,0.203l1.584,1.584l-2.741,2.741L68.336,42.44z M71.377,39.798l-0.199-0.199l1.305-1.305     l1.437-1.436l1.787,1.787l-2.741,2.741L71.377,39.798z M75.807,38.745l1.787,1.787l-2.742,2.741l-1.787-1.787L75.807,38.745z      M75.906,38.645l2.741-2.741l1.787,1.787l-2.741,2.741L75.906,38.645z M76.86,33.916l2.742-2.741l1.787,1.787l-2.742,2.741     L76.86,33.916z M79.702,31.074l2.741-2.742l1.787,1.787l-2.741,2.742L79.702,31.074z M80.657,26.345l2.741-2.742l1.787,1.788     l-2.741,2.741L80.657,26.345z M81.611,21.617l2.741-2.742l1.787,1.787l-2.741,2.742L81.611,21.617z M84.671,15.374     c0.071,0.152,0.14,0.305,0.207,0.458c0.24,0.555,0.451,1.117,0.634,1.684l-1.159,1.159l-1.787-1.787l1.914-1.914     C84.545,15.106,84.609,15.24,84.671,15.374z M84.412,14.841l-1.947,1.947L80.678,15l2.408-2.409     C83.581,13.319,84.023,14.07,84.412,14.841z M83.005,12.474L80.578,14.9l-1.787-1.787l2.644-2.644     C82.005,11.114,82.527,11.784,83.005,12.474z M80.472,9.445c0.3,0.3,0.589,0.607,0.868,0.919l-2.649,2.649l-1.787-1.787     l2.649-2.649C79.864,8.856,80.171,9.145,80.472,9.445z M79.447,8.482l-2.644,2.644l-1.787-1.788l2.427-2.426     C78.133,7.389,78.803,7.912,79.447,8.482z M77.324,6.83l-2.408,2.409l-1.787-1.787l1.947-1.947     C75.847,5.893,76.598,6.335,77.324,6.83z M74.085,5.039c0.153,0.066,0.306,0.135,0.458,0.206c0.134,0.062,0.267,0.126,0.4,0.192     l-1.915,1.914l-1.786-1.787L72.4,4.405C72.968,4.587,73.53,4.798,74.085,5.039z M72.248,4.357l-1.106,1.107l-1.742-1.742     C70.363,3.854,71.313,4.066,72.248,4.357z M71.042,5.564L68.3,8.306l-1.787-1.787l2.742-2.742L71.042,5.564z M66.905,3.557     c0.752-0.004,1.498,0.041,2.237,0.131l-2.729,2.73l-1.788-1.787l1.023-1.023C66.069,3.577,66.488,3.559,66.905,3.557z      M65.431,3.626l-0.905,0.905l-0.699-0.699C64.363,3.741,64.898,3.672,65.431,3.626z M63.656,3.862l0.77,0.769l-2.741,2.742     l-1.788-1.787l1.044-1.043C61.851,4.251,62.757,4.024,63.656,3.862z M60.646,4.637l-0.849,0.849l-0.394-0.394     C59.817,4.927,60.231,4.775,60.646,4.637z M57.042,6.168c0.221-0.114,0.44-0.223,0.661-0.33c0.52-0.251,1.039-0.479,1.558-0.689     l0.436,0.436l-2.741,2.742l-1.359-1.36C56.078,6.684,56.561,6.417,57.042,6.168z M55.47,7.042l1.386,1.385l-2.742,2.742     l-1.787-1.787l0.859-0.859C53.948,7.986,54.71,7.492,55.47,7.042z M52.468,9.04l-0.241,0.241L52.19,9.245     C52.282,9.176,52.375,9.108,52.468,9.04z M52.076,9.332l0.05,0.049l-2.741,2.742l-0.306-0.306     C50.078,10.917,51.077,10.088,52.076,9.332z M46.312,14.531c0.048-0.054,0.096-0.106,0.144-0.159     c0.06-0.066,0.121-0.132,0.183-0.198c0.037-0.04,0.074-0.081,0.111-0.12c0.102-0.106,0.203-0.211,0.306-0.314     c0.111-0.11,0.222-0.221,0.333-0.33c0.528-0.52,1.058-1.018,1.587-1.498l0.31,0.311l-2.741,2.741l-0.325-0.326     C46.249,14.603,46.28,14.567,46.312,14.531z M46.125,14.747l0.318,0.318l-2.228,2.228C44.836,16.352,45.474,15.501,46.125,14.747     z M43.854,17.854l2.689-2.689l1.787,1.787l-2.741,2.741l-1.775-1.775C43.827,17.896,43.84,17.875,43.854,17.854z M41.803,21.574     c0.026-0.053,0.052-0.106,0.078-0.159c0.042-0.086,0.085-0.173,0.128-0.259c0.043-0.087,0.086-0.173,0.13-0.259     c0.024-0.048,0.049-0.097,0.074-0.146c0.061-0.118,0.122-0.237,0.183-0.354c0.005-0.009,0.01-0.019,0.015-0.028     c0.431-0.823,0.874-1.6,1.326-2.329l1.752,1.752l-2.742,2.742l-0.949-0.95C41.8,21.582,41.801,21.578,41.803,21.574z      M41.599,22.001c0.009-0.019,0.018-0.037,0.026-0.056c0.036-0.075,0.072-0.15,0.108-0.225l0.914,0.915l-2.341,2.341     C40.694,24.006,41.124,23.005,41.599,22.001z M40.174,25.308l2.573-2.573l1.787,1.787l-2.741,2.741L40.08,25.55     C40.111,25.47,40.142,25.389,40.174,25.308z M39.063,28.458c0.153-0.515,0.317-1.021,0.492-1.512     c0.147-0.407,0.303-0.825,0.467-1.251l1.67,1.669l-2.742,2.742l-0.208-0.208C38.838,29.393,38.945,28.91,39.063,28.458z      M38.712,30.066l0.139,0.14l-0.199,0.198C38.672,30.29,38.691,30.178,38.712,30.066z M38.614,30.643l0.337-0.337l1.787,1.788     l-2.502,2.501C38.289,33.229,38.417,31.883,38.614,30.643z M38.229,34.802l2.609-2.609l1.787,1.787l-2.742,2.742l-1.662-1.662     C38.224,34.974,38.226,34.888,38.229,34.802z M38.217,35.255l1.567,1.567l-1.492,1.492     C38.221,37.317,38.197,36.285,38.217,35.255z M38.306,38.5l1.578-1.578l1.787,1.787L38.93,41.45l-0.291-0.291     C38.49,40.32,38.379,39.431,38.306,38.5z M38.685,41.405l0.145,0.145l-0.098,0.098C38.716,41.568,38.7,41.487,38.685,41.405z      M38.766,41.814l0.164-0.164l1.787,1.787l-1.16,1.16C39.24,43.755,38.975,42.823,38.766,41.814z M39.613,44.742l1.204-1.204     l1.788,1.787L40.83,47.1C40.367,46.426,39.96,45.635,39.613,44.742z M41.727,48.19c-0.288-0.288-0.56-0.613-0.815-0.973     l1.793-1.793l1.787,1.787l-1.793,1.793C42.339,48.749,42.014,48.478,41.727,48.19z M42.817,49.087l1.774-1.774l1.788,1.787     l-1.205,1.204C44.281,49.956,43.491,49.549,42.817,49.087z M48.102,51.15c-1.009-0.208-1.94-0.474-2.783-0.791l1.16-1.16     l1.787,1.787L48.102,51.15z M48.269,51.185l0.098-0.098l0.145,0.145C48.43,51.216,48.349,51.2,48.269,51.185z M48.757,51.277     l-0.291-0.291l2.742-2.741l1.787,1.787l-1.578,1.577C50.486,51.537,49.597,51.426,48.757,51.277z M51.604,51.624l1.491-1.492     l1.567,1.567C53.632,51.719,52.6,51.695,51.604,51.624z M54.857,51.694l-1.663-1.662l2.742-2.741l1.787,1.787l-2.609,2.609     C55.028,51.69,54.942,51.692,54.857,51.694z M55.322,51.68l2.502-2.502l1.787,1.787l-0.338,0.338     C58.033,51.5,56.687,51.628,55.322,51.68z M59.512,51.265l0.199-0.199l0.14,0.14C59.738,51.226,59.626,51.245,59.512,51.265z      M62.972,50.36c-0.492,0.175-0.997,0.339-1.513,0.492c-0.453,0.119-0.936,0.226-1.439,0.321l-0.209-0.209l2.742-2.741l1.67,1.67     C63.797,50.058,63.379,50.214,62.972,50.36z M64.366,49.837l-1.714-1.713l2.742-2.742l1.787,1.787l-2.574,2.574     C64.526,49.774,64.446,49.806,64.366,49.837z M67.971,48.292c-0.019,0.009-0.037,0.018-0.056,0.025     c-1.004,0.475-2.005,0.905-2.975,1.294l2.341-2.342l0.914,0.914C68.121,48.22,68.046,48.256,67.971,48.292z M69.547,47.506     c-0.01,0.006-0.019,0.01-0.028,0.016c-0.116,0.061-0.235,0.121-0.354,0.182c-0.049,0.025-0.098,0.05-0.146,0.074     c-0.086,0.044-0.173,0.087-0.259,0.13c-0.087,0.043-0.173,0.086-0.259,0.129c-0.054,0.025-0.106,0.051-0.16,0.077     c-0.004,0.002-0.007,0.004-0.011,0.006l-0.95-0.95l2.742-2.741l1.752,1.752C71.146,46.632,70.369,47.075,69.547,47.506z      M71.998,46.104l-1.775-1.776l2.742-2.742l1.787,1.788l-2.689,2.689C72.041,46.076,72.021,46.09,71.998,46.104z M72.626,45.7     l2.226-2.226l0.318,0.318C74.415,44.442,73.565,45.079,72.626,45.7z M76.176,42.861c-0.103,0.103-0.208,0.205-0.314,0.306     c-0.039,0.037-0.079,0.075-0.119,0.112c-0.065,0.062-0.132,0.123-0.198,0.183c-0.053,0.048-0.105,0.096-0.158,0.144     c-0.036,0.031-0.072,0.062-0.108,0.094l-0.325-0.325l2.741-2.742l0.311,0.311C77.424,41.583,76.814,42.223,76.176,42.861z      M78.1,40.837l-0.306-0.306l2.741-2.742l0.049,0.049C79.827,38.838,79,39.839,78.1,40.837z M80.67,37.726l-0.035-0.035     l0.245-0.245C80.811,37.539,80.74,37.632,80.67,37.726z M81.395,36.73l-0.859,0.86l-1.787-1.787l2.741-2.742l1.385,1.385     C82.424,35.207,81.932,35.968,81.395,36.73z M84.351,31.631c-0.088,0.194-0.18,0.389-0.273,0.583     c-0.337,0.701-0.715,1.403-1.128,2.107l-1.359-1.36l2.741-2.742l0.436,0.436C84.636,30.98,84.498,31.306,84.351,31.631z      M84.825,30.514l-0.395-0.394l0.848-0.847C85.14,29.686,84.989,30.1,84.825,30.514z M85.377,28.974l-1.046,1.045l-1.787-1.787     l2.741-2.742l0.771,0.771C85.894,27.16,85.667,28.065,85.377,28.974z M86.085,26.091l-0.699-0.7l0.906-0.906     C86.246,25.018,86.177,25.553,86.085,26.091z M86.309,24.268l-1.023,1.023l-1.787-1.787l2.73-2.73     c0.091,0.739,0.135,1.486,0.131,2.238C86.357,23.428,86.34,23.847,86.309,24.268z"/>
		</g>
		<path fill="#ff3d00" d="M18.283,66.858c-3.568,3.649-7.259,7.423-10.063,10.229c-0.631,0.631-1.277,0.87-2.255,1.234    c-0.181,0.066-0.368,0.136-0.562,0.211c-1.034,0.397-1.739,1.157-1.937,2.085c-0.161,0.76-0.048,1.972,1.407,3.426l1,1.001    c1.455,1.454,2.666,1.567,3.427,1.406c0.928-0.197,1.688-0.902,2.084-1.936c0.075-0.195,0.145-0.383,0.212-0.562    c0.362-0.979,0.603-1.624,1.234-2.255c2.805-2.805,6.579-6.495,10.228-10.063c3.148-3.078,6.121-5.985,8.03-7.895    c0.723-0.724,1.718-1.467,2.938-2.203c0.154-0.155,0.258-0.354,0.294-0.574c0.05-0.304-0.034-0.613-0.231-0.85    c-0.223-0.27-0.436-0.521-0.639-0.758c-0.317,0.155-0.65,0.32-1.001,0.497c-0.38,0.19-1.235-0.384-1.605-0.729    c0,0-0.001,0.001-0.001,0.001c-0.008-0.008-0.016-0.017-0.025-0.025c-0.008-0.009-0.017-0.017-0.025-0.025c0,0,0,0,0.001,0    c-0.345-0.371-0.919-1.227-0.729-1.606c0.18-0.357,0.347-0.696,0.504-1.019c-0.232-0.202-0.48-0.414-0.748-0.639    c-0.192-0.162-0.435-0.249-0.683-0.249c-0.056,0-0.112,0.004-0.168,0.014c-0.221,0.035-0.421,0.14-0.577,0.293    c-0.741,1.23-1.488,2.233-2.216,2.962C24.268,60.737,21.361,63.711,18.283,66.858z"/>
	</g>
	<g>
		<path fill="#ff3d00" d="M61.103,72.928c0.1,2.23,0.645,4.35,1.553,6.165c1.136-1.344,1.821-3.079,1.821-4.976    c0-2.406-1.102-4.555-2.828-5.969C61.23,69.527,61.026,71.204,61.103,72.928z"/>
		<path fill="#ff3d00" d="M52.423,72.928c0.077-1.724-0.128-3.4-0.546-4.779c-1.726,1.414-2.827,3.562-2.827,5.969    c0,1.896,0.686,3.632,1.82,4.976C51.779,77.277,52.324,75.158,52.423,72.928z"/>
		<path fill="#ff3d00" d="M59.775,72.986c-0.091-2.045,0.18-4.013,0.729-5.614c-1.108-0.616-2.384-0.969-3.742-0.969    s-2.634,0.353-3.742,0.969c0.551,1.602,0.821,3.569,0.73,5.614c-0.076,1.682-0.444,4.438-1.88,7.094    c1.331,1.094,3.034,1.75,4.892,1.75s3.562-0.656,4.893-1.75C60.22,77.425,59.851,74.668,59.775,72.986z"/>
	</g>
</g>
</svg>
